<svg width="24" height="24" viewBox="0 0 24 24" fill="none" xmlns="http://www.w3.org/2000/svg">
<path d="M19.9754 4.31958H18.4899C18.4372 1.95961 16.4249 0 13.9069 0C11.3995 0 9.37665 1.95961 9.32397 4.31958H7.83846C5.56277 4.31958 4.37226 5.49956 4.37226 7.75417V11.7366C4.71993 11.6839 5.0676 11.6523 5.41528 11.6523C5.77349 11.6523 6.12116 11.6839 6.46883 11.7471V7.94381C6.46883 6.9324 7.00615 6.42669 7.97542 6.42669H19.8385C20.7972 6.42669 21.345 6.9324 21.345 7.94381V18.4688C21.345 19.4908 20.7972 19.9965 20.0913 19.9965H12.158C12.0316 20.7445 11.7471 21.4609 11.3573 22.0931H20.2283C22.2616 22.0931 23.4416 20.9131 23.4416 18.6585V7.75417C23.4416 5.49956 22.2511 4.31958 19.9754 4.31958ZM13.9069 1.86479C15.3503 1.86479 16.4144 2.94996 16.4565 4.31958H11.3573C11.3995 2.94996 12.4636 1.86479 13.9069 1.86479ZM5.42581 24C8.37577 24 10.8516 21.5347 10.8516 18.5637C10.8516 15.5926 8.39684 13.1378 5.42581 13.1378C2.45478 13.1378 0 15.5926 0 18.5637C0 21.5558 2.45478 24 5.42581 24ZM1.98068 18.5742C1.98068 18.1317 2.27568 17.8472 2.70764 17.8472H4.69886V15.856C4.69886 15.4241 4.98332 15.1396 5.42581 15.1291C5.86831 15.1291 6.15277 15.4241 6.15277 15.856V17.8472H8.14399C8.57594 17.8472 8.8604 18.1317 8.8604 18.5742C8.8604 19.0061 8.57594 19.2906 8.14399 19.2906H6.15277V21.2924C6.15277 21.7243 5.86831 22.0193 5.42581 22.0193C4.98332 22.0193 4.69886 21.7243 4.69886 21.2924V19.2906H2.70764C2.27568 19.2906 1.98068 19.0061 1.98068 18.5742Z" fill="#1C1C1E"/>
</svg>
