<svg width="24" height="24" viewBox="0 0 24 24" fill="none" xmlns="http://www.w3.org/2000/svg">
<path d="M11.9942 23.9884C18.5713 23.9884 24 18.5597 24 11.9942C24 5.42871 18.5597 0 11.9826 0C5.41711 0 0 5.42871 0 11.9942C0 18.5597 5.42871 23.9884 11.9942 23.9884ZM11.9942 21.5988C6.66989 21.5988 2.41276 17.3185 2.41276 11.9942C2.41276 6.66989 6.66989 2.40116 11.9826 2.40116C17.3069 2.40116 21.5872 6.66989 21.5988 11.9942C21.6104 17.3185 17.3185 21.5988 11.9942 21.5988ZM9.25665 6.98308C7.35428 6.98308 5.9391 8.43306 5.9391 10.4862C5.9391 13.653 9.37264 16.4021 11.391 17.6665C11.5882 17.7825 11.855 17.9449 12.0174 17.9449C12.1798 17.9449 12.4234 17.7825 12.609 17.6665C14.6042 16.3789 18.0609 13.653 18.0609 10.4862C18.0609 8.43306 16.6457 6.98308 14.7318 6.98308C13.5022 6.98308 12.5394 7.69067 11.9942 8.67665C11.449 7.69067 10.5094 6.98308 9.25665 6.98308Z" fill="#1C1C1E"/>
</svg>
