<svg width="24" height="25" viewBox="0 0 24 25" fill="none" xmlns="http://www.w3.org/2000/svg">
<path d="M3.34998 12.1094V8.40104C3.34998 8.12477 3.45533 7.85982 3.64287 7.66447C3.83041 7.46912 4.08476 7.35937 4.34998 7.35938H20.75C21.0152 7.35938 21.2695 7.46912 21.4571 7.66447C21.6446 7.85982 21.75 8.12477 21.75 8.40104V20.3802C21.75 20.6565 21.6446 20.9214 21.4571 21.1168C21.2695 21.3121 21.0152 21.4219 20.75 21.4219H4.34998C4.08476 21.4219 3.83041 21.3121 3.64287 21.1168C3.45533 20.9214 3.34998 20.6565 3.34998 20.3802V16.6667" stroke="#333333" stroke-width="1.45" stroke-linecap="round" stroke-linejoin="round"/>
<path d="M2.75 12.1094H8.5C8.76522 12.1094 9.01957 12.2191 9.20711 12.4145C9.39464 12.6098 9.5 12.8748 9.5 13.151V15.625C9.5 15.9013 9.39464 16.1662 9.20711 16.3616C9.01957 16.5569 8.76522 16.6667 8.5 16.6667H2.75C2.61739 16.6667 2.49021 16.6118 2.39645 16.5141C2.30268 16.4164 2.25 16.284 2.25 16.1458V12.6302C2.25 12.4921 2.30268 12.3596 2.39645 12.2619C2.49021 12.1642 2.61739 12.1094 2.75 12.1094Z" stroke="#333333" stroke-width="1.45" stroke-linecap="round" stroke-linejoin="round"/>
<path d="M7.245 15.4323C7.79728 15.4323 8.24499 14.966 8.24499 14.3907C8.24499 13.8154 7.79728 13.349 7.245 13.349C6.69271 13.349 6.245 13.8154 6.245 14.3907C6.245 14.966 6.69271 15.4323 7.245 15.4323Z" stroke="#333333" stroke-width="1.45" stroke-linecap="round" stroke-linejoin="round"/>
<path d="M19.06 7.35938L6.59504 3.57812L5.54004 7.35938" stroke="#333333" stroke-width="1.45" stroke-linecap="round" stroke-linejoin="round"/>
</svg>
