<svg width="32" height="32" viewBox="0 0 32 32" fill="none" xmlns="http://www.w3.org/2000/svg">
<rect width="32" height="32" rx="8" fill="#333333"/>
<path d="M22.721 15.6832C22.7096 13.7159 23.5937 12.2333 25.3791 11.1401C24.3805 9.69782 22.8698 8.90458 20.8784 8.7517C18.9928 8.60171 16.9299 9.85935 16.1745 9.85935C15.3763 9.85935 13.5508 8.80362 12.1144 8.80362C9.15021 8.84977 6 11.1862 6 15.9399C6 17.3446 6.25465 18.7955 6.76395 20.2897C7.44492 22.2569 9.89986 27.0769 12.4607 26.9991C13.7997 26.9673 14.7468 26.0414 16.4893 26.0414C18.1803 26.0414 19.0558 26.9991 20.5494 26.9991C23.133 26.9616 25.3534 22.58 26 20.607C22.535 18.96 22.721 15.7841 22.721 15.6832ZM19.7139 6.88543C21.1645 5.14895 21.0329 3.56825 20.99 3C19.7082 3.075 18.226 3.87977 17.382 4.86916C16.4521 5.93066 15.9056 7.2431 16.0229 8.72285C17.4077 8.82958 18.6724 8.11134 19.7139 6.88543Z" fill="white"/>
</svg>
