<svg width="25" height="17" viewBox="0 0 25 17" fill="none" xmlns="http://www.w3.org/2000/svg">
<path d="M19.0107 16.4414C19.292 16.7139 19.7227 16.7315 20.0039 16.4414C20.2939 16.1426 20.2764 15.7207 20.0039 15.4483L5.09766 0.550794C4.8252 0.278333 4.36816 0.269544 4.0957 0.550794C3.83203 0.814466 3.83203 1.2715 4.0957 1.53517L19.0107 16.4414ZM12.085 1.05177C10.5469 1.05177 9.1582 1.31544 7.86621 1.74611L9.29004 3.16993C10.1777 2.92384 11.0918 2.77443 12.085 2.77443C17.6748 2.77443 22.1133 7.63478 22.1133 8.6631C22.1133 9.35744 20.707 11.1416 18.4658 12.5479L19.7842 13.875C22.5439 12.0645 24.1523 9.70021 24.1523 8.6631C24.1523 6.86134 19.3008 1.05177 12.085 1.05177ZM12.085 16.2832C13.7021 16.2832 15.1875 16.002 16.5322 15.5361L15.1084 14.1123C14.1592 14.3936 13.1572 14.5606 12.085 14.5606C6.47754 14.5606 2.03906 9.89357 2.03906 8.6631C2.03906 8.07423 3.52441 6.18458 5.90625 4.70802L4.56152 3.36329C1.69629 5.19142 0 7.6172 0 8.6631C0 10.4649 4.95703 16.2832 12.085 16.2832ZM16.4531 10.3418C16.6816 9.83204 16.8047 9.25197 16.8047 8.6631C16.8047 6.03517 14.7041 3.95216 12.085 3.95216C11.4785 3.95216 10.916 4.07521 10.3975 4.28615L16.4531 10.3418ZM12.085 13.3828C12.7529 13.3828 13.3857 13.2246 13.957 12.9522L7.77832 6.77345C7.49707 7.34474 7.34766 7.98634 7.34766 8.67189C7.35645 11.2295 9.44824 13.3828 12.085 13.3828Z" fill="#6A6A6A"/>
</svg>
