<svg width="32" height="32" viewBox="0 0 32 32" fill="none" xmlns="http://www.w3.org/2000/svg">
<path d="M4 5.33325V1.33325H6.66667V5.33325H10.6667V7.99992H6.66667V11.9999H4V7.99992H0V5.33325H4ZM8 13.3333V9.33325H12V5.33325H21.3333L23.7733 7.99992H28C29.4667 7.99992 30.6667 9.19992 30.6667 10.6666V26.6666C30.6667 28.1333 29.4667 29.3333 28 29.3333H6.66667C5.2 29.3333 4 28.1333 4 26.6666V13.3333H8ZM17.3333 25.3333C21.0133 25.3333 24 22.3466 24 18.6666C24 14.9866 21.0133 11.9999 17.3333 11.9999C13.6533 11.9999 10.6667 14.9866 10.6667 18.6666C10.6667 22.3466 13.6533 25.3333 17.3333 25.3333ZM13.0667 18.6666C13.0667 21.0266 14.9733 22.9333 17.3333 22.9333C19.6933 22.9333 21.6 21.0266 21.6 18.6666C21.6 16.3066 19.6933 14.3999 17.3333 14.3999C14.9733 14.3999 13.0667 16.3066 13.0667 18.6666Z" fill="#333333"/>
</svg>
