<svg width="32" height="32" viewBox="0 0 32 32" fill="none" xmlns="http://www.w3.org/2000/svg">
<path d="M10.25 17H15V21.75C15 21.8875 15.1125 22 15.25 22H16.75C16.8875 22 17 21.8875 17 21.75V17H21.75C21.8875 17 22 16.8875 22 16.75V15.25C22 15.1125 21.8875 15 21.75 15H17V10.25C17 10.1125 16.8875 10 16.75 10H15.25C15.1125 10 15 10.1125 15 10.25V15H10.25C10.1125 15 10 15.1125 10 15.25V16.75C10 16.8875 10.1125 17 10.25 17Z" fill="#333333"/>
<path d="M27.5 3.5H4.5C3.94687 3.5 3.5 3.94687 3.5 4.5V27.5C3.5 28.0531 3.94687 28.5 4.5 28.5H27.5C28.0531 28.5 28.5 28.0531 28.5 27.5V4.5C28.5 3.94687 28.0531 3.5 27.5 3.5ZM26.25 26.25H5.75V5.75H26.25V26.25Z" fill="#333333"/>
</svg>
