<svg width="32" height="32" viewBox="0 0 32 32" fill="none" xmlns="http://www.w3.org/2000/svg">
<path d="M4.3312 3.16915L28.4112 14.6857C28.6546 14.8019 28.8601 14.9847 29.004 15.2128C29.1479 15.441 29.2242 15.7052 29.2242 15.9749C29.2242 16.2446 29.1479 16.5088 29.004 16.7369C28.8601 16.965 28.6546 17.1478 28.4112 17.264L4.3312 28.7806C4.08435 28.8988 3.80872 28.9436 3.53712 28.9097C3.26552 28.8758 3.00938 28.7646 2.79917 28.5893C2.58896 28.414 2.43353 28.182 2.35138 27.9209C2.26923 27.6599 2.26381 27.3807 2.33577 27.1166L4.74492 18.2846C4.77441 18.1763 4.83511 18.0792 4.91945 18.0052C5.00379 17.9312 5.10804 17.8837 5.2192 17.8686L16.8878 16.2834C16.9365 16.2765 16.9827 16.2571 17.0217 16.227C17.0608 16.197 17.0914 16.1574 17.1106 16.112L17.1312 16.0412C17.1402 15.9773 17.1274 15.9124 17.0948 15.8568C17.0623 15.8012 17.0118 15.7582 16.9518 15.7349L16.8889 15.7177L5.23177 14.1326C5.12082 14.1172 5.01681 14.0696 4.93269 13.9957C4.84857 13.9217 4.78804 13.8247 4.75863 13.7166L2.33577 4.83429C2.26352 4.57014 2.26872 4.29078 2.35074 4.02949C2.43277 3.76821 2.58817 3.536 2.79844 3.36054C3.0087 3.18508 3.26497 3.07375 3.53672 3.03982C3.80847 3.00589 4.08425 3.05078 4.3312 3.16915V3.16915Z" fill="#333333"/>
</svg>
