<svg width="20" height="20" viewBox="0 0 20 20" fill="none" xmlns="http://www.w3.org/2000/svg">
<path d="M9.96094 19.9219C11.3216 19.9219 12.6026 19.6615 13.8037 19.1406C15.0049 18.6198 16.0645 17.9004 16.9824 16.9824C17.9004 16.0645 18.6198 15.0049 19.1406 13.8037C19.6615 12.6026 19.9219 11.3216 19.9219 9.96094C19.9219 8.60026 19.6615 7.31933 19.1406 6.11816C18.6198 4.91699 17.9004 3.85742 16.9824 2.93945C16.0645 2.02148 15.0033 1.30208 13.7988 0.78125C12.5944 0.260417 11.3119 0 9.95117 0C8.5905 0 7.30957 0.260417 6.1084 0.78125C4.90723 1.30208 3.84928 2.02148 2.93457 2.93945C2.01986 3.85742 1.30208 4.91699 0.78125 6.11816C0.260417 7.31933 0 8.60026 0 9.96094C0 11.3216 0.260417 12.6026 0.78125 13.8037C1.30208 15.0049 2.02148 16.0645 2.93945 16.9824C3.85742 17.9004 4.91699 18.6198 6.11816 19.1406C7.31933 19.6615 8.60026 19.9219 9.96094 19.9219ZM9.96094 18.2617C8.80859 18.2617 7.73112 18.0469 6.72852 17.6172C5.72591 17.1875 4.84538 16.5935 4.08691 15.835C3.32845 15.0765 2.736 14.196 2.30957 13.1934C1.88314 12.1908 1.66992 11.1133 1.66992 9.96094C1.66992 8.80859 1.88314 7.73112 2.30957 6.72852C2.736 5.72591 3.32682 4.84375 4.08203 4.08203C4.83724 3.32031 5.71614 2.72623 6.71875 2.2998C7.72136 1.87337 8.79883 1.66016 9.95117 1.66016C11.1035 1.66016 12.181 1.87337 13.1836 2.2998C14.1862 2.72623 15.0684 3.32031 15.8301 4.08203C16.5918 4.84375 17.1875 5.72591 17.6172 6.72852C18.0469 7.73112 18.2617 8.80859 18.2617 9.96094C18.2617 11.1133 18.0485 12.1908 17.6221 13.1934C17.1956 14.196 16.6032 15.0765 15.8447 15.835C15.0862 16.5935 14.2041 17.1875 13.1982 17.6172C12.1924 18.0469 11.1133 18.2617 9.96094 18.2617ZM5.42969 9.96094C5.42969 10.1953 5.50781 10.3874 5.66406 10.5371C5.82031 10.6868 6.02214 10.7617 6.26953 10.7617H9.14062V13.6426C9.14062 13.89 9.21549 14.0902 9.36523 14.2432C9.51497 14.3962 9.70703 14.4727 9.94141 14.4727C10.1888 14.4727 10.389 14.3962 10.542 14.2432C10.695 14.0902 10.7715 13.89 10.7715 13.6426V10.7617H13.6523C13.8997 10.7617 14.0999 10.6868 14.2529 10.5371C14.4059 10.3874 14.4824 10.1953 14.4824 9.96094C14.4824 9.71354 14.4059 9.51334 14.2529 9.36035C14.0999 9.20736 13.8997 9.13086 13.6523 9.13086H10.7715V6.25977C10.7715 6.00586 10.695 5.80241 10.542 5.64941C10.389 5.49642 10.1888 5.41992 9.94141 5.41992C9.70703 5.41992 9.51497 5.49805 9.36523 5.6543C9.21549 5.81055 9.14062 6.01237 9.14062 6.25977V9.13086H6.26953C6.01562 9.13086 5.81217 9.20736 5.65918 9.36035C5.50619 9.51334 5.42969 9.71354 5.42969 9.96094Z" fill="#0075FF"/>
</svg>
