<svg width="21" height="20" viewBox="0 0 21 20" fill="none" xmlns="http://www.w3.org/2000/svg">
<path d="M10.8447 19.9864C12.2054 19.9864 13.4864 19.7259 14.6875 19.2051C15.8887 18.6843 16.9483 17.9649 17.8662 17.0469C18.7842 16.1289 19.5036 15.0694 20.0244 13.8682C20.5453 12.667 20.8057 11.3861 20.8057 10.0254C20.8057 8.66471 20.5453 7.38379 20.0244 6.18261C19.5036 4.98145 18.7842 3.92188 17.8662 3.0039C16.9483 2.08594 15.8871 1.36654 14.6826 0.845703C13.4782 0.32487 12.1956 0.0644531 10.835 0.0644531C9.47429 0.0644531 8.19336 0.32487 6.99219 0.845703C5.79102 1.36654 4.73307 2.08594 3.81836 3.0039C2.90365 3.92188 2.18587 4.98145 1.66504 6.18261C1.14421 7.38379 0.883789 8.66471 0.883789 10.0254C0.883789 11.3861 1.14421 12.667 1.66504 13.8682C2.18587 15.0694 2.90527 16.1289 3.82324 17.0469C4.74121 17.9649 5.80078 18.6843 7.00195 19.2051C8.20312 19.7259 9.48405 19.9864 10.8447 19.9864ZM10.8447 18.3262C9.69238 18.3262 8.61491 18.1113 7.61231 17.6817C6.6097 17.252 5.72917 16.6579 4.9707 15.8995C4.21224 15.141 3.61979 14.2605 3.19336 13.2579C2.76693 12.2553 2.55371 11.1778 2.55371 10.0254C2.55371 8.87305 2.76693 7.79557 3.19336 6.79297C3.61979 5.79037 4.21061 4.9082 4.96582 4.14648C5.72103 3.38476 6.59993 2.79069 7.60254 2.36425C8.60515 1.93783 9.68262 1.72461 10.835 1.72461C11.9873 1.72461 13.0648 1.93783 14.0674 2.36425C15.07 2.79069 15.9522 3.38476 16.7139 4.14648C17.4756 4.9082 18.0713 5.79037 18.501 6.79297C18.9307 7.79557 19.1455 8.87305 19.1455 10.0254C19.1455 11.1778 18.9323 12.2553 18.5059 13.2579C18.0794 14.2605 17.487 15.141 16.7285 15.8995C15.97 16.6579 15.0879 17.252 14.082 17.6817C13.0762 18.1113 11.9971 18.3262 10.8447 18.3262ZM10.3174 13.7071C10.4411 13.9089 10.6169 14.0114 10.8447 14.0147C11.0726 14.0179 11.2484 13.9154 11.3721 13.7071L14.6533 8.15039C14.79 7.91602 14.8145 7.69304 14.7266 7.48144C14.6387 7.26986 14.4775 7.16406 14.2432 7.16406H7.44629C7.2054 7.16406 7.04427 7.27474 6.96289 7.49609C6.88151 7.71745 6.90267 7.93555 7.02637 8.15039L10.3174 13.7071Z" fill="#333333" fill-opacity="0.85"/>
</svg>
