<svg width="34" height="33" viewBox="0 0 34 33" fill="none" xmlns="http://www.w3.org/2000/svg">
<path d="M14.4311 26.4122C17.157 26.4122 19.7114 25.6067 21.8372 24.2307L29.346 31.5973C29.8432 32.0671 30.4775 32.302 31.1633 32.302C32.5862 32.302 33.6319 31.2113 33.6319 29.8353C33.6319 29.1977 33.4091 28.5768 32.929 28.107L25.4716 20.774C27.0145 18.6261 27.9231 16.0252 27.9231 13.2061C27.9231 5.94022 21.8543 0 14.4311 0C7.02511 0 0.939148 5.94022 0.939148 13.2061C0.939148 20.4719 7.00797 26.4122 14.4311 26.4122ZM14.4311 22.8883C8.99662 22.8883 4.5393 18.5254 4.5393 13.2061C4.5393 7.88673 8.99662 3.52386 14.4311 3.52386C19.8656 3.52386 24.323 7.88673 24.323 13.2061C24.323 18.5254 19.8656 22.8883 14.4311 22.8883Z" fill="#6A6A6A"/>
</svg>
