<svg width="31" height="29" viewBox="0 0 31 29" fill="none" xmlns="http://www.w3.org/2000/svg">
<path d="M4 4.33325V0.333252H6.66667V4.33325H10.6667V6.99992H6.66667V10.9999H4V6.99992H0V4.33325H4ZM8 12.3333V8.33325H12V4.33325H21.3333L23.7733 6.99992H28C29.4667 6.99992 30.6667 8.19992 30.6667 9.66659V25.6666C30.6667 27.1333 29.4667 28.3333 28 28.3333H6.66667C5.2 28.3333 4 27.1333 4 25.6666V12.3333H8ZM17.3333 24.3333C21.0133 24.3333 24 21.3466 24 17.6666C24 13.9866 21.0133 10.9999 17.3333 10.9999C13.6533 10.9999 10.6667 13.9866 10.6667 17.6666C10.6667 21.3466 13.6533 24.3333 17.3333 24.3333ZM13.0667 17.6666C13.0667 20.0266 14.9733 21.9333 17.3333 21.9333C19.6933 21.9333 21.6 20.0266 21.6 17.6666C21.6 15.3066 19.6933 13.3999 17.3333 13.3999C14.9733 13.3999 13.0667 15.3066 13.0667 17.6666Z" fill="#333333"/>
</svg>
