<svg width="28" height="26" viewBox="0 0 28 26" fill="none" xmlns="http://www.w3.org/2000/svg">
<path d="M2.3312 0.16915L26.4112 11.6857C26.6546 11.8019 26.8601 11.9847 27.004 12.2128C27.1479 12.441 27.2242 12.7052 27.2242 12.9749C27.2242 13.2446 27.1479 13.5088 27.004 13.7369C26.8601 13.965 26.6546 14.1478 26.4112 14.264L2.3312 25.7806C2.08435 25.8988 1.80872 25.9436 1.53712 25.9097C1.26552 25.8758 1.00938 25.7646 0.799167 25.5893C0.588956 25.414 0.433529 25.182 0.351379 24.9209C0.269228 24.6599 0.263812 24.3807 0.335775 24.1166L2.74492 15.2846C2.77441 15.1763 2.83511 15.0792 2.91945 15.0052C3.00379 14.9312 3.10804 14.8837 3.2192 14.8686L14.8878 13.2834C14.9365 13.2765 14.9827 13.2571 15.0217 13.227C15.0608 13.197 15.0914 13.1574 15.1106 13.112L15.1312 13.0412C15.1402 12.9773 15.1274 12.9124 15.0948 12.8568C15.0623 12.8012 15.0118 12.7582 14.9518 12.7349L14.8889 12.7177L3.23177 11.1326C3.12082 11.1172 3.01681 11.0696 2.93269 10.9957C2.84857 10.9217 2.78804 10.8247 2.75863 10.7166L0.335775 1.83429C0.26352 1.57014 0.268716 1.29078 0.350743 1.02949C0.43277 0.768206 0.588171 0.536003 0.798437 0.36054C1.0087 0.185077 1.26497 0.07375 1.53672 0.0398177C1.80847 0.00588547 2.08425 0.0507785 2.3312 0.16915Z" fill="#333333"/>
</svg>
